<?xml version="1.0" encoding="UTF-8"?>
<svg width="1200pt" height="1200pt" version="1.1" viewBox="0 0 1200 1200" xmlns="http://www.w3.org/2000/svg">
 <path d="m500.02 225c-206.81 0-375 168.19-375 375v350.11c0 1.9219 0.23438 3.8438 0.70312 5.7188 0.1875 0.60938 0.375 1.2188 0.60938 1.8281 0.42188 1.3594 0.9375 2.625 1.5938 3.8438 0.28125 0.60938 0.5625 1.125 0.89062 1.6875 0.98438 1.6406 2.2031 3.1875 3.5625 4.5469 1.4062 1.3594 3 2.5781 4.7344 3.6094 0.42188 0.23438 0.84375 0.46875 1.2656 0.65625 1.4062 0.75 2.8594 1.3594 4.4062 1.8281 0.42188 0.14062 0.89062 0.28125 1.3594 0.375 1.9688 0.51562 3.9375 0.79688 5.9531 0.79688h349.92c206.81 0 375-168.19 375-375v-27.422c48.75-10.031 87.422-48.75 97.453-97.547h77.625c13.828-0.046875 24.938-11.297 24.891-25.078 0-123.98-100.97-224.95-224.95-224.95zm375 60.375c73.875 12.047 127.6 65.766 139.69 139.69h-139.69zm-226.92 64.688c0.65625-0.046875 1.3125 0 1.9688 0 41.531 0 75 33.422 75 75 0 41.531-33.469 75-75 75-41.578 0-75-33.469-75-75 0-40.922 32.391-73.969 73.031-75zm226.92 124.97h24.891c-6.5156 11.109-13.781 18.656-24.891 25.125zm-550.03 150.05h150.05v150.05c0 83.156-66.891 149.86-150.05 149.86h-150v-149.86c0-83.109 66.891-150.05 150-150.05z" fill="#4c25e0"/>
 <path d="m500.02 275.02c-179.81 0-325.03 145.22-325.03 324.98v43.078c36.703-41.672 90.375-67.969 150-67.969h175.03c13.781-0.046875 25.031 11.062 25.078 24.891v175.13c0 59.625-26.344 113.2-67.969 149.86h42.891c179.76 0 324.94-145.22 324.94-324.98v-324.98zm148.08 75.047c0.65625-0.046875 1.3125 0 1.9688 0 41.531 0 75 33.422 75 75 0 41.531-33.469 75-75 75-41.578 0-75-33.469-75-75 0-40.922 32.391-73.969 73.031-75z" fill="#4c25e0"/>
</svg>
