<?xml version="1.0" encoding="UTF-8"?>
<svg width="1200pt" height="1200pt" version="1.1" viewBox="0 0 1200 1200" xmlns="http://www.w3.org/2000/svg">
 <path d="m489.63 402.59c11.133-52.828 36.773-126.56 95.672-194.23 6.3516 64.172 26.203 190.24 87.07 273 11.953-4.1602 24.148-7.5898 36.516-10.266-10.82-13.168-20.305-27.379-28.312-42.422 5.8359 0.49219 11.719 0.75 17.484 0.75 42.504 0.023437 83.996-12.973 118.89-37.238 34.898-24.266 61.527-58.637 76.309-98.488 14.777-39.855 16.996-83.277 6.3594-124.43-0.79688-3.0156-2.3789-5.7617-4.5859-7.9648-2.207-2.2031-4.9609-3.7812-7.9766-4.5742-52.266-13.539-107.75-6.2188-154.71 20.422-46.961 26.641-81.719 70.504-96.914 122.31-9.5195-43.594-15.492-87.887-17.859-132.45-0.14453-4.5469-2.0469-8.8594-5.3047-12.031-3.2578-3.1719-7.6211-4.9609-12.168-4.9844-4.5508-0.023438-8.9297 1.7148-12.223 4.8516-85.219 81.211-119.32 176.34-132.94 241.83-4.6797 22.414-7.8125 45.125-9.375 67.969 11.742 0.75391 23.434 2.1719 35.016 4.2422 1.3945-22.293 4.418-44.453 9.0469-66.305z" fill="#ff001b"/>
 <path d="m425.39 499.22c-73.039 0-143.09 29.016-194.73 80.66-51.645 51.645-80.66 121.69-80.66 194.73s29.016 143.09 80.66 194.73c51.645 51.645 121.69 80.66 194.73 80.66s143.09-29.016 194.73-80.66c51.645-51.645 80.66-121.69 80.66-194.73-0.082031-73.012-29.121-143.01-80.75-194.64s-121.63-80.668-194.64-80.75zm-98.273 136.85c-28.766 20.359-50.484 49.168-62.133 82.43-2.0938 5.9297-7.1914 10.289-13.371 11.441-6.1797 1.1523-12.508-1.082-16.594-5.8594-4.0859-4.7773-5.3164-11.371-3.2227-17.301 14.066-40.133 40.277-74.891 75-99.445 5.1172-3.6406 11.785-4.2773 17.5-1.668 5.7109 2.6094 9.5977 8.0664 10.195 14.32 0.59766 6.25-2.1875 12.348-7.3047 15.988zm40.547-21.281c-1.0312 0.35156-2.0391 0.75-3.0703 1.1484-5.8359 2.1367-12.363 1.0352-17.176-2.8984-4.8086-3.9336-7.1836-10.117-6.2461-16.258 0.9375-6.1445 5.0469-11.336 10.812-13.656l3.7266-1.3828c5.9062-2.1367 12.504-0.95703 17.309 3.0898 4.8008 4.0508 7.082 10.352 5.9766 16.535-1.1055 6.1836-5.4258 11.309-11.332 13.445z" fill="#ff001b"/>
 <path d="m774.61 499.22c-51.324-0.058594-101.63 14.316-145.17 41.484 44.719 38.93 77.34 89.863 94 146.76 16.66 56.902 16.66 117.39 0 174.29-16.66 56.898-49.281 107.83-94 146.76 48.438 30.059 105.01 44.344 161.91 40.883 56.898-3.4609 111.32-24.5 155.76-60.207 44.434-35.707 76.691-84.328 92.32-139.15 15.625-54.824 13.852-113.14-5.0781-166.91-18.93-53.77-54.082-100.34-100.61-133.28-46.523-32.941-102.12-50.633-159.13-50.629zm167.18 394.05c-24.555 34.723-59.312 60.934-99.445 75-1.8711 0.64453-3.8359 0.97656-5.8125 0.98437-5.582 0.003907-10.836-2.6445-14.152-7.1328-3.3164-4.4922-4.3047-10.293-2.6562-15.625 1.6445-5.3359 5.7266-9.5703 10.996-11.414 33.262-11.648 62.07-33.367 82.43-62.133 3.6406-5.1172 9.7383-7.9023 15.988-7.3047 6.2539 0.59766 11.711 4.4844 14.32 10.195 2.6094 5.7148 1.9727 12.383-1.668 17.5zm25.781-48.984c-0.44531 1.2422-0.91406 2.4844-1.3828 3.7031-2.3906 5.6484-7.5547 9.6445-13.625 10.539s-12.164-1.4375-16.086-6.1562c-3.918-4.7227-5.0938-11.145-3.1016-16.945 0.39844-1.0312 0.77344-2.0625 1.1484-3.0938 2.1367-5.9062 7.2617-10.227 13.445-11.332 6.1836-1.1055 12.484 1.1758 16.535 5.9766 4.0469 4.8047 5.2266 11.402 3.0898 17.309z" fill="#ff001b"/>
</svg>
