<?xml version="1.0" encoding="UTF-8"?>
<svg width="1200pt" height="1200pt" version="1.1" viewBox="0 0 1200 1200" xmlns="http://www.w3.org/2000/svg">
 <path d="m600 108.75c-262.5 0-476.26 213.74-476.26 476.26v345c0 63.75 41.25 123.74 101.25 146.26 56.25 22.5 116.25 7.5 157.5-30 18.75-18.75 30-26.25 56.25-26.25s37.5 11.25 56.25 26.25c22.5 18.75 52.5 48.75 105 48.75 56.25 0 86.25-26.25 105-48.75 18.75-18.75 30-26.25 56.25-26.25s37.5 11.25 56.25 26.25c41.25 41.25 105 52.5 157.5 30 60-22.5 101.25-78.75 101.25-146.26v-345c0-262.5-213.74-476.26-476.26-476.26zm401.26 821.26c0 33.75-22.5 63.75-52.5 75s-60 3.75-82.5-15-52.5-48.75-105-48.75-86.25 26.25-105 48.75c-18.75 18.75-30 26.25-56.25 26.25s-37.5-11.25-56.25-26.25c-22.5-18.75-52.5-48.75-105-48.75-56.25 0-86.25 26.25-105 48.75-22.5 18.75-52.5 26.25-82.5 15s-52.5-41.25-52.5-75v-345c0-221.26 180-401.26 401.26-401.26s401.26 180 401.26 401.26zm-491.26-401.26c0 45-26.25 82.5-56.25 82.5s-56.25-37.5-56.25-82.5 26.25-82.5 56.25-82.5 56.25 37.5 56.25 82.5zm296.26 0c0 45-26.25 82.5-56.25 82.5s-56.25-37.5-56.25-82.5 26.25-82.5 56.25-82.5 56.25 37.5 56.25 82.5z" fill="#fff"/>
</svg>
